<svg width="18" height="20" viewBox="0 0 18 20" fill="none" xmlns="http://www.w3.org/2000/svg">
<path d="M14 6.6665C14 5.34042 13.4732 4.06865 12.5355 3.13097C11.5979 2.19329 10.3261 1.6665 9 1.6665C7.67392 1.6665 6.40215 2.19329 5.46447 3.13097C4.52678 4.06865 4 5.34042 4 6.6665C4 12.4998 1.5 14.1665 1.5 14.1665H16.5C16.5 14.1665 14 12.4998 14 6.6665Z" stroke="#141414" stroke-width="1.5" stroke-linecap="round" stroke-linejoin="round"/>
<path d="M10.4419 17.5C10.2954 17.7526 10.0851 17.9622 9.83211 18.1079C9.5791 18.2537 9.29224 18.3304 9.00026 18.3304C8.70828 18.3304 8.42142 18.2537 8.1684 18.1079C7.91539 17.9622 7.7051 17.7526 7.55859 17.5" stroke="#141414" stroke-width="1.5" stroke-linecap="round" stroke-linejoin="round"/>
</svg>
