<svg width="20" height="20" viewBox="0 0 20 20" fill="currentColor" xmlns="http://www.w3.org/2000/svg">
<path d="M13.8215 0.836822L11.6228 0.833008C9.15268 0.833008 7.55638 2.60392 7.55638 5.34487V7.42513H5.34572C5.15469 7.42513 5 7.59259 5 7.79915V10.8132C5 11.0198 5.15487 11.187 5.34572 11.187H7.55638V18.7925C7.55638 18.9991 7.71107 19.1663 7.9021 19.1663H10.7864C10.9774 19.1663 11.1321 18.9989 11.1321 18.7925V11.187H13.7169C13.9079 11.187 14.0626 11.0198 14.0626 10.8132L14.0637 7.79915C14.0637 7.69997 14.0271 7.60499 13.9624 7.5348C13.8977 7.46461 13.8095 7.42513 13.7178 7.42513H11.1321V5.66166C11.1321 4.81407 11.3189 4.38379 12.34 4.38379L13.8211 4.38322C14.012 4.38322 14.1667 4.21576 14.1667 4.00939V1.21065C14.1667 1.00447 14.0121 0.837204 13.8215 0.836822Z" />
</svg>
