<svg width="13" height="13" viewBox="0 0 13 13" fill="none" xmlns="http://www.w3.org/2000/svg">
    <path fill-rule="evenodd" clip-rule="evenodd" d="M6.50034 0.807129C6.70651 0.807129 6.8948 0.924168 6.98606 1.10904L8.5339 4.2448L11.9953 4.75074C12.1993 4.78055 12.3687 4.92356 12.4323 5.11964C12.4958 5.31573 12.4426 5.53091 12.2949 5.67474L9.79071 8.11387L10.3817 11.5597C10.4166 11.763 10.333 11.9683 10.1662 12.0895C9.99938 12.2107 9.77822 12.2267 9.59572 12.1307L6.50034 10.5029L3.40496 12.1307C3.22246 12.2267 3.00131 12.2107 2.83449 12.0895C2.66766 11.9683 2.58411 11.763 2.61897 11.5597L3.20998 8.11387L0.705736 5.67474C0.558068 5.53091 0.504837 5.31573 0.568416 5.11964C0.631996 4.92356 0.801364 4.78055 1.00533 4.75074L4.46678 4.2448L6.01462 1.10904C6.10588 0.924168 6.29417 0.807129 6.50034 0.807129Z" fill="#CFCFCF"/>
</svg>
