<svg width="20" height="20" viewBox="0 0 20 20" fill="none" xmlns="http://www.w3.org/2000/svg">
<path fill-rule="evenodd" clip-rule="evenodd" d="M16.9458 4.27015C17.7107 4.48006 18.3131 5.09854 18.5176 5.88396C18.8891 7.30745 18.8891 10.2776 18.8891 10.2776C18.8891 10.2776 18.8891 13.2476 18.5176 14.6712C18.3131 15.4566 17.7107 16.0751 16.9458 16.2851C15.5595 16.6664 10.0002 16.6664 10.0002 16.6664C10.0002 16.6664 4.44092 16.6664 3.05456 16.2851C2.28961 16.0751 1.68719 15.4566 1.48274 14.6712C1.11133 13.2476 1.11133 10.2776 1.11133 10.2776C1.11133 10.2776 1.11133 7.30745 1.48274 5.88396C1.68719 5.09854 2.28961 4.48006 3.05456 4.27015C4.44092 3.88867 10.0002 3.88867 10.0002 3.88867C10.0002 3.88867 15.5595 3.88867 16.9458 4.27015ZM8.33341 7.77763V13.3332L12.7779 10.5555L8.33341 7.77763Z" fill="#141414"/>
</svg>
