<svg width="22" height="22" viewBox="0 0 22 22" fill="none" xmlns="http://www.w3.org/2000/svg">
<g clip-path="url(#clip0)">
<path d="M11.0858 0C7.93715 0 5.38477 2.55246 5.38477 5.70099C5.38477 8.84959 7.93715 11.4022 11.0858 11.4022C14.2344 11.4022 16.7867 8.84959 16.7867 5.70099C16.7867 2.55246 14.2344 0 11.0858 0ZM11.0858 8.05781C9.78423 8.05781 8.72909 7.00259 8.72909 5.70107C8.72909 4.39954 9.78423 3.34441 11.0858 3.34441C12.3873 3.34441 13.4424 4.39954 13.4424 5.70107C13.4424 7.00259 12.3873 8.05781 11.0858 8.05781Z" fill="#F68634"/>
<path d="M13.0978 15.9385C15.3801 15.4736 16.7478 14.3928 16.8202 14.3347C17.488 13.7991 17.5953 12.8235 17.0597 12.1556C16.5242 11.4878 15.5487 11.3805 14.8807 11.916C14.8665 11.9274 13.4078 13.0464 11.0077 13.0481C8.60759 13.0464 7.11802 11.9274 7.1039 11.916C6.43589 11.3805 5.46038 11.4878 4.92485 12.1556C4.38925 12.8235 4.49653 13.7991 5.16439 14.3347C5.23773 14.3936 6.66188 15.5026 9.00818 15.9566L5.73817 19.374C5.14391 19.9903 5.16178 20.9716 5.77807 21.5659C6.07887 21.8559 6.46656 22.0001 6.85393 22.0001C7.26006 22.0001 7.66578 21.8414 7.96993 21.5259L11.0077 18.2898L14.3524 21.5469C14.9584 22.1519 15.9397 22.1509 16.5446 21.5451C17.1494 20.9393 17.1487 19.9578 16.5429 19.353L13.0978 15.9385Z" fill="#F68634"/>
</g>
<defs>
<clipPath id="clip0">
<path d="M0 0H22V22H0V0Z" fill="white"/>
</clipPath>
</defs>
</svg>
