<svg width="22" height="22" viewBox="0 0 22 22" fill="none" xmlns="http://www.w3.org/2000/svg">
<path d="M18.7188 6.13512C19.624 5.60575 20.2234 4.8832 20.5169 3.96427C19.6364 4.40933 18.7592 4.71457 17.8831 4.8832C17.0955 4.07634 16.0984 3.6665 14.9031 3.6665C13.7346 3.6665 12.7476 4.05713 11.9421 4.81703C11.1411 5.58227 10.7366 6.51187 10.7366 7.59729C10.7366 7.92708 10.7803 8.22165 10.8677 8.47139C7.42165 8.35933 4.56934 6.99748 2.322 4.37624C1.9411 5.01768 1.75065 5.67085 1.75065 6.34644C1.75065 7.73497 2.36569 8.83533 3.59355 9.64326C2.89336 9.5867 2.27607 9.41807 1.75065 9.14164C1.75065 10.1331 2.05649 10.9614 2.6693 11.6903C3.28435 12.4118 4.07416 12.8718 5.03875 13.0682C4.68921 13.1535 4.32063 13.1941 3.94197 13.1941C3.59243 13.1941 3.34484 13.1663 3.19808 13.1055C3.45575 13.9134 3.94197 14.5688 4.6444 15.0704C5.34459 15.5741 6.1501 15.8399 7.05531 15.8634C5.56305 16.9787 3.85682 17.5305 1.92653 17.5305C1.45376 17.5305 1.11879 17.524 0.916016 17.4899C2.81718 18.666 4.93344 19.2498 7.27489 19.2498C9.67122 19.2498 11.7886 18.6714 13.6315 17.5144C15.4744 16.3639 16.8345 14.9444 17.7083 13.2731C18.5866 11.6039 19.0213 9.86632 19.0213 8.05195V7.55247C19.8705 6.94412 20.5573 6.25892 21.0827 5.50222C20.3209 5.81494 19.5333 6.02732 18.7188 6.13512Z" fill="#55ACEE"/>
</svg>
