<svg width="20" height="20" viewBox="0 0 20 20" fill="currentColor" xmlns="http://www.w3.org/2000/svg">
<path d="M10.9808 15.7881C10.9808 15.7881 11.3418 15.75 11.5267 15.5614C11.6959 15.3887 11.69 15.0627 11.69 15.0627C11.69 15.0627 11.6675 13.5404 12.4119 13.3157C13.1456 13.0946 14.0876 14.7878 15.0873 15.4388C15.8425 15.9311 16.4157 15.8233 16.4157 15.8233L19.0872 15.7881C19.0872 15.7881 20.484 15.7063 19.8218 14.6633C19.767 14.5779 19.4354 13.8915 17.8361 12.4817C16.1604 11.0059 16.3854 11.2445 18.4024 8.69137C19.6311 7.13662 20.1221 6.18743 19.9685 5.78156C19.8228 5.39333 18.9189 5.49643 18.9189 5.49643L15.9119 5.51407C15.9119 5.51407 15.6889 5.48528 15.5236 5.57909C15.3622 5.67103 15.2575 5.88558 15.2575 5.88558C15.2575 5.88558 14.7821 7.08833 14.1473 8.11182C12.8081 10.2703 12.273 10.3845 12.0539 10.2508C11.5443 9.93777 11.6714 8.99508 11.6714 8.32544C11.6714 6.23294 12.006 5.36083 11.0209 5.13514C10.6942 5.05991 10.4536 5.01068 9.61722 5.00232C8.54413 4.99211 7.63636 5.00604 7.12183 5.24473C6.77946 5.40355 6.51534 5.75834 6.67675 5.77877C6.87532 5.80385 7.32529 5.89394 7.56397 6.20229C7.87211 6.60073 7.86135 7.4942 7.86135 7.4942C7.86135 7.4942 8.0384 9.95728 7.44757 10.2628C7.04259 10.4727 6.48698 10.0446 5.29259 8.08582C4.68122 7.08275 4.21951 5.97381 4.21951 5.97381C4.21951 5.97381 4.13049 5.7667 3.97104 5.65524C3.77834 5.52057 3.50933 5.47878 3.50933 5.47878L0.652008 5.49643C0.652008 5.49643 0.222578 5.50757 0.0650879 5.68497C-0.0747949 5.84193 0.0543276 6.16792 0.0543276 6.16792C0.0543276 6.16792 2.29147 11.1377 4.82501 13.6426C7.14824 15.9385 9.78547 15.7881 9.78547 15.7881H10.9808Z"/>
</svg>
