<svg width="22" height="22" viewBox="0 0 22 22" fill="none" xmlns="http://www.w3.org/2000/svg">
<g clip-path="url(#clip0)">
<path d="M4.87568 13.2951L4.10989 16.1539L1.31094 16.2131C0.474462 14.6616 0 12.8865 0 11.0002C0 9.17613 0.443611 7.45601 1.22994 5.94141H1.23054L3.72239 6.39825L4.81397 8.87514C4.58551 9.54119 4.46098 10.2562 4.46098 11.0002C4.46107 11.8077 4.60734 12.5813 4.87568 13.2951Z" fill="#FBBB00"/>
<path d="M21.8082 8.94531C21.9345 9.61073 22.0004 10.2979 22.0004 11.0002C22.0004 11.7878 21.9176 12.556 21.7598 13.297C21.2244 15.8185 19.8252 18.0203 17.8869 19.5784L17.8863 19.5778L14.7477 19.4177L14.3035 16.6447C15.5896 15.8904 16.5947 14.71 17.1242 13.297H11.2422V8.94531H17.21H21.8082Z" fill="#518EF8"/>
<path d="M17.8855 19.5776L17.8861 19.5782C16.001 21.0934 13.6064 22 10.9996 22C6.81056 22 3.16848 19.6586 1.31055 16.2129L4.87529 13.2949C5.80423 15.7741 8.19583 17.539 10.9996 17.539C12.2048 17.539 13.3338 17.2132 14.3027 16.6445L17.8855 19.5776Z" fill="#28B446"/>
<path d="M18.0218 2.5324L14.4583 5.44981C13.4556 4.82306 12.2704 4.46101 11.0006 4.46101C8.13329 4.46101 5.69695 6.30682 4.81454 8.87493L1.23107 5.9412H1.23047C3.0612 2.41153 6.74922 0 11.0006 0C13.6696 0 16.1168 0.950725 18.0218 2.5324Z" fill="#F14336"/>
</g>
<defs>
<clipPath id="clip0">
<path d="M0 0H22V22H0V0Z" fill="white"/>
</clipPath>
</defs>
</svg>
