<svg width="20" height="20" viewBox="0 0 20 20" fill="#141414" xmlns="http://www.w3.org/2000/svg">
<path d="M17.1568 2.55856L0.389445 8.90424C-0.153651 9.1098 -0.120749 9.86669 0.438302 10.027L4.69906 11.2489L6.28917 16.1491C6.45527 16.6609 7.12315 16.8161 7.50977 16.4327L9.7127 14.2482L14.035 17.3295C14.564 17.7065 15.3173 17.4264 15.4516 16.8027L18.3143 3.51058C18.4545 2.85949 17.7949 2.31704 17.1568 2.55856ZM15.0546 5.5084L7.26626 12.1971C7.18863 12.2638 7.13922 12.356 7.12767 12.4561L6.82781 15.0448C6.81802 15.1292 6.69637 15.1404 6.6704 15.0593L5.4367 11.1986C5.3802 11.0218 5.45387 10.8303 5.61579 10.7328L14.813 5.19303C15.0245 5.06554 15.241 5.34831 15.0546 5.5084Z"/>
</svg>
