<svg width="20" height="20" viewBox="0 0 20 20" fill="none" xmlns="http://www.w3.org/2000/svg">
<path d="M13.3681 1.66699H6.63159C3.89383 1.66699 1.6665 3.89432 1.6665 6.63208V13.3686C1.6665 16.1063 3.89383 18.3337 6.63159 18.3337H13.3681C16.1058 18.3337 18.3332 16.1063 18.3332 13.3686V6.63208C18.3331 3.89432 16.1058 1.66699 13.3681 1.66699ZM16.6565 13.3686C16.6565 15.1847 15.1842 16.657 13.3681 16.657H6.63159C4.81546 16.657 3.34317 15.1847 3.34317 13.3686V6.63208C3.34317 4.81592 4.81546 3.34366 6.63159 3.34366H13.3681C15.1842 3.34366 16.6565 4.81592 16.6565 6.63208V13.3686Z" fill="#141414"/>
<path d="M9.99967 5.83398C7.70217 5.83398 5.83301 7.70315 5.83301 10.0006C5.83301 12.2981 7.70217 14.1673 9.99967 14.1673C12.2972 14.1673 14.1663 12.2981 14.1663 10.0006C14.1663 7.70312 12.2972 5.83398 9.99967 5.83398ZM9.99967 12.5467C8.59356 12.5467 7.45369 11.4068 7.45369 10.0007C7.45369 8.59454 8.59358 7.45467 9.99967 7.45467C11.4058 7.45467 12.5457 8.59454 12.5457 10.0007C12.5457 11.4068 11.4058 12.5467 9.99967 12.5467Z" fill="#141414"/>
<path d="M14.1663 6.66667C14.6266 6.66667 14.9997 6.29357 14.9997 5.83333C14.9997 5.3731 14.6266 5 14.1663 5C13.7061 5 13.333 5.3731 13.333 5.83333C13.333 6.29357 13.7061 6.66667 14.1663 6.66667Z" fill="#141414"/>
</svg>
