<svg width="113" height="17" viewBox="0 0 113 17" fill="none" xmlns="http://www.w3.org/2000/svg">
<path d="M8.49528 4.3338C8.49528 4.74085 8.59155 5.07606 8.80814 5.33944C9.02473 5.60282 9.36166 5.72254 9.79484 5.72254C10.228 5.72254 10.5409 5.60282 10.7815 5.33944C11.0222 5.07606 11.1425 4.74085 11.1425 4.3338V2.49014C11.1425 1.89155 10.8056 1.38873 10.1318 1.00563C8.95253 0.335211 7.55671 0 5.94429 0C4.13934 0 2.76759 0.407043 1.82901 1.19718C0.89044 2.01127 0.433187 3.08873 0.433187 4.45352C0.433187 5.57887 0.721979 6.48873 1.29956 7.20704C1.87714 7.92535 2.57506 8.45211 3.3933 8.78732C4.21154 9.12254 5.05385 9.40986 5.87209 9.6493C6.69034 9.91268 7.38825 10.2479 7.96583 10.6549C8.54341 11.0859 8.83221 11.6127 8.83221 12.2831C8.83221 12.9775 8.56748 13.5042 8.03803 13.8394C7.50858 14.1986 6.81067 14.3662 5.92023 14.3662C4.69286 14.3662 3.60989 14.1268 2.64726 13.6479V12.307C2.64726 11.9239 2.52693 11.5887 2.28627 11.3254C2.04561 11.062 1.73275 10.9183 1.29956 10.9183C0.866375 10.9183 0.553517 11.062 0.336923 11.3254C0.0962639 11.5887 0 11.9239 0 12.307V14.1746C0 14.9887 0.409121 15.5873 1.2755 16.0183C2.55099 16.6887 4.06715 17 5.84803 17C7.82144 17 9.28946 16.5451 10.2762 15.6352C11.2388 14.7254 11.7442 13.4803 11.7442 11.9239C11.7442 11.0141 11.5276 10.2479 11.1185 9.57747C10.6853 8.93099 10.1799 8.45211 9.55418 8.1169C8.92847 7.80563 8.25462 7.49437 7.53264 7.20704C6.81067 6.91972 6.13682 6.68028 5.5111 6.48873C4.88539 6.29718 4.38 6.0338 3.97088 5.67465C3.5377 5.31549 3.34517 4.88451 3.34517 4.35775C3.34517 3.20845 4.13934 2.6338 5.7277 2.6338C6.61814 2.6338 7.53264 2.82535 8.49528 3.20845V4.3338Z" fill="#141414"/>
<path d="M20.6629 8.35634C20.6629 8.73944 20.7591 9.02676 20.9757 9.2662C21.1683 9.50563 21.4811 9.62535 21.8662 9.62535C22.2512 9.62535 22.54 9.50563 22.7566 9.2662C22.9491 9.02676 23.0695 8.73944 23.0695 8.35634V6.68028C23.0935 6.20141 22.8529 5.79437 22.3475 5.45915C21.6255 5.02817 20.5907 4.78873 19.243 4.78873C17.4621 4.78873 16.0663 5.36338 15.0555 6.46479C14.0447 7.5662 13.5394 9.07465 13.5394 10.9901C13.5394 12.9056 14.0207 14.3662 15.0074 15.4197C15.97 16.4732 17.3418 17 19.0745 17C20.6147 17 21.8662 16.6408 22.8047 15.8986C23.4786 15.3479 23.6471 14.7732 23.2861 14.1507C22.9491 13.6239 22.4197 13.5521 21.6496 13.9113C20.7351 14.3662 19.965 14.5817 19.3393 14.5817C18.4247 14.5817 17.7028 14.2704 17.1492 13.6239C16.5957 13.0014 16.331 12.1155 16.331 10.9901C16.331 9.8169 16.5957 8.8831 17.1252 8.21268C17.6546 7.54225 18.3766 7.20704 19.3152 7.20704C19.7484 7.20704 20.2056 7.27887 20.6629 7.37465V8.35634Z" fill="#141414"/>
<path d="M33.6525 11.8761C34.1097 11.8761 34.4707 11.7803 34.7114 11.5887C34.952 11.3972 35.1205 11.1099 35.2408 10.6789C35.313 10.3915 35.3612 10.0324 35.3612 9.55352C35.3612 8.1169 34.9039 6.96761 34.0375 6.10563C33.1712 5.24366 31.9679 4.78873 30.4276 4.78873C28.6949 4.78873 27.3472 5.36338 26.3364 6.46479C25.3257 7.59014 24.8203 9.07465 24.8203 10.9423C24.8203 12.8817 25.2775 14.3662 26.2402 15.4197C27.2028 16.4732 28.5746 17 30.3795 17C31.9679 17 33.2434 16.6887 34.1819 16.0662C34.4707 15.8746 34.6632 15.6352 34.7595 15.3479C34.8558 15.0606 34.8317 14.7732 34.6873 14.5338C34.3985 14.031 33.8931 13.9113 33.1952 14.1986C32.1845 14.6296 31.3421 14.8211 30.6442 14.8211C29.7057 14.8211 28.9596 14.5577 28.4061 14.031C27.8285 13.5042 27.5397 12.7859 27.5157 11.8761H33.6525ZM30.4276 6.96761C31.2218 6.96761 31.8235 7.20704 32.2326 7.63803C32.6417 8.09296 32.8583 8.66761 32.8583 9.38592C32.8583 9.62535 32.8342 9.84085 32.8342 9.98451H27.5157C27.5879 9.02676 27.8766 8.28451 28.382 7.75775C28.8874 7.23099 29.5613 6.96761 30.4276 6.96761Z" fill="#141414"/>
<path d="M37.8802 5.02817C37.0619 5.02817 36.6528 5.41127 36.6528 6.17746C36.6528 6.91972 37.0619 7.27887 37.8802 7.27887H38.4578V14.5099H37.8802C37.0619 14.5099 36.6528 14.893 36.6528 15.6592C36.6528 16.4014 37.0619 16.7606 37.8802 16.7606H41.7307C42.549 16.7606 42.9822 16.4014 42.9822 15.6592C42.9822 14.893 42.549 14.5099 41.7307 14.5099H41.1772V12.2831C41.1772 11.5648 41.2254 10.9183 41.3216 10.3437C41.4179 9.79296 41.5623 9.2662 41.7548 8.76338C41.9473 8.26056 42.2602 7.87746 42.6452 7.59014C43.0303 7.32676 43.5116 7.1831 44.0892 7.1831C45.4369 7.1831 46.1348 8.09296 46.1348 9.86479V15.3718C46.1348 15.7789 46.2311 16.1141 46.4717 16.3775C46.7124 16.6408 47.0493 16.7606 47.4825 16.7606H49.4078C50.226 16.7606 50.6592 16.4014 50.6592 15.6592C50.6592 14.893 50.226 14.5099 49.4078 14.5099H48.8543V9.91268C48.8543 8.23662 48.5414 6.94366 47.9157 6.08169C47.29 5.21972 46.2311 4.78873 44.739 4.78873C43.9689 4.78873 43.271 4.95634 42.6452 5.29155C42.0195 5.62676 41.5141 6.12958 41.1772 6.77606V6.4169C41.1772 6.0338 41.0569 5.69859 40.8162 5.43521C40.5756 5.17183 40.2387 5.02817 39.8055 5.02817H37.8802Z" fill="#141414"/>
<path d="M52.5431 12.9535C52.5431 15.6592 53.7464 17 56.2012 17C57.1638 17 57.958 16.8324 58.6077 16.4493C59.3779 16.0183 59.6185 15.4437 59.3538 14.7732C59.2335 14.5099 59.0409 14.3423 58.7762 14.2465C58.4874 14.1746 58.1986 14.1986 57.9098 14.3183C57.4285 14.5099 57.0194 14.6056 56.6343 14.6056C56.129 14.6056 55.768 14.462 55.5754 14.1507C55.3588 13.8634 55.2626 13.3606 55.2626 12.6662V7.32676H57.3082C58.1746 7.32676 58.6077 6.94366 58.6077 6.17746C58.6077 5.41127 58.1746 5.02817 57.3082 5.02817H55.2626V3.54366C55.2626 3.16056 55.1423 2.82535 54.9016 2.56197C54.6609 2.29859 54.324 2.15493 53.8908 2.15493C53.4576 2.15493 53.1207 2.29859 52.8801 2.56197C52.6394 2.82535 52.5431 3.16056 52.5431 3.54366V12.9535Z" fill="#141414"/>
<path d="M61.3586 0.239436C60.5404 0.239436 60.1312 0.622536 60.1312 1.38873C60.1312 2.13099 60.5404 2.49014 61.3586 2.49014H61.9362V14.5099H61.3586C60.5404 14.5099 60.1312 14.893 60.1312 15.6592C60.1312 16.4014 60.5404 16.7606 61.3586 16.7606H63.2839C63.7171 16.7606 64.054 16.6408 64.2946 16.3775C65.0166 16.8085 66.0274 17 67.327 17C69.1078 17 70.4555 16.4254 71.37 15.2282C72.2845 14.0549 72.7418 12.4986 72.7418 10.5352C72.7418 8.81127 72.3327 7.42254 71.5626 6.36901C70.7684 5.31549 69.6373 4.78873 68.1693 4.78873C66.5809 4.78873 65.4017 5.41127 64.6556 6.60845V1.62817C64.6556 1.24507 64.5353 0.909859 64.2946 0.646479C64.054 0.383099 63.7171 0.239436 63.2839 0.239436H61.3586ZM67.6158 7.08732C69.156 7.08732 69.9501 8.23662 69.9501 10.4873C69.9501 13.3127 68.9634 14.7014 67.0382 14.7014C66.0755 14.7014 65.2813 14.5338 64.6556 14.1507V12.2831C64.6556 8.83521 65.6423 7.08732 67.6158 7.08732Z" fill="#141414"/>
<path d="M74.6208 10.8944C74.6208 12.7141 75.1262 14.1746 76.137 15.3C77.1477 16.4493 78.5436 17 80.3726 17C82.1775 17 83.5974 16.4493 84.6082 15.3C85.619 14.1507 86.1484 12.6901 86.1484 10.8944C86.1484 9.12254 85.619 7.66197 84.6082 6.51268C83.5974 5.36338 82.1775 4.78873 80.3726 4.78873C78.5436 4.78873 77.1477 5.36338 76.137 6.48873C75.1262 7.63803 74.6208 9.09859 74.6208 10.8944ZM77.4125 10.8944C77.4125 9.79296 77.6531 8.8831 78.1826 8.16479C78.688 7.44648 79.4099 7.08732 80.3726 7.08732C81.3352 7.08732 82.0572 7.44648 82.5866 8.14085C83.092 8.85916 83.3568 9.76901 83.3568 10.8944C83.3568 12.0437 83.092 12.9535 82.5866 13.6479C82.0572 14.3662 81.3352 14.7014 80.3726 14.7014C79.4099 14.7014 78.688 14.3662 78.1826 13.6479C77.6531 12.9535 77.4125 12.0437 77.4125 10.8944Z" fill="#141414"/>
<path d="M88.0169 10.8944C88.0169 12.7141 88.5223 14.1746 89.5331 15.3C90.5438 16.4493 91.9397 17 93.7687 17C95.5736 17 96.9935 16.4493 98.0043 15.3C99.0151 14.1507 99.5445 12.6901 99.5445 10.8944C99.5445 9.12254 99.0151 7.66197 98.0043 6.51268C96.9935 5.36338 95.5736 4.78873 93.7687 4.78873C91.9397 4.78873 90.5438 5.36338 89.5331 6.48873C88.5223 7.63803 88.0169 9.09859 88.0169 10.8944ZM90.8086 10.8944C90.8086 9.79296 91.0492 8.8831 91.5787 8.16479C92.0841 7.44648 92.806 7.08732 93.7687 7.08732C94.7313 7.08732 95.4533 7.44648 95.9827 8.14085C96.4881 8.85916 96.7529 9.76901 96.7529 10.8944C96.7529 12.0437 96.4881 12.9535 95.9827 13.6479C95.4533 14.3662 94.7313 14.7014 93.7687 14.7014C92.806 14.7014 92.0841 14.3662 91.5787 13.6479C91.0492 12.9535 90.8086 12.0437 90.8086 10.8944Z" fill="#141414"/>
<path d="M111.075 14.5099L107.417 10.8944L110.978 7.27887H111.171C111.989 7.27887 112.422 6.91972 112.422 6.17746C112.422 5.41127 111.989 5.02817 111.171 5.02817H108.042C107.224 5.02817 106.839 5.41127 106.839 6.17746C106.839 6.89577 107.2 7.27887 107.97 7.27887L104.89 10.4634V1.62817C104.89 1.24507 104.769 0.909859 104.529 0.646479C104.288 0.383099 103.975 0.239436 103.542 0.239436H101.641C100.823 0.239436 100.414 0.622536 100.414 1.38873C100.414 2.13099 100.823 2.49014 101.641 2.49014H102.218V14.5099H101.641C100.823 14.5099 100.414 14.893 100.414 15.6592C100.414 16.4014 100.823 16.7606 101.641 16.7606H105.155C105.973 16.7606 106.406 16.4014 106.406 15.6592C106.406 14.893 105.973 14.5099 105.155 14.5099H104.89V11.6845L109.077 16.1141C109.486 16.5451 109.871 16.7606 110.208 16.7606H111.749C112.567 16.7606 113 16.4014 113 15.6592C113 14.893 112.567 14.5099 111.749 14.5099H111.075Z" fill="#141414"/>
</svg>
