<svg width="91" height="15" viewBox="0 0 91 15" fill="none" xmlns="http://www.w3.org/2000/svg">
<path fill-rule="evenodd" clip-rule="evenodd" d="M89.0196 12.9176C87.6938 14.2226 85.8881 14.8747 83.6024 14.8747C82.1063 14.8747 80.8082 14.5818 79.7073 13.9976C78.6063 13.4135 77.7624 12.5621 77.1753 11.445C76.5874 10.3288 76.2939 9.00794 76.2939 7.48412C76.2939 5.91794 76.5874 4.57676 77.1753 3.45971C77.7624 2.34353 78.6063 1.48676 79.7073 0.892059C80.8082 0.297353 82.1063 0 83.6024 0C85.1405 0 86.46 0.297353 87.5609 0.892059C88.6609 1.48676 89.5103 2.34353 90.1089 3.45971C90.7067 4.57676 91.0064 5.91794 91.0064 7.48412C91.0064 9.80118 90.3436 11.6126 89.0196 12.9176ZM86.7598 3.83559C86.0648 2.99029 85.012 2.56765 83.6024 2.56765C82.2561 2.56765 81.2346 2.99029 80.5405 3.83559C79.8464 4.68088 79.4994 5.89765 79.4994 7.48412C79.4994 9.04941 79.8464 10.2503 80.5405 11.085C81.2346 11.9206 82.2561 12.3379 83.6024 12.3379C85.012 12.3379 86.0648 11.9206 86.7598 11.085C87.4539 10.2503 87.8009 9.04941 87.8009 7.48412C87.8009 5.89765 87.4539 4.68088 86.7598 3.83559ZM67.5721 11.8368H68.8863V6.10588C68.8863 4.85294 68.6722 3.96618 68.2457 3.44382C67.8175 2.92235 67.0913 2.66118 66.0653 2.66118C65.5095 2.66118 64.9385 2.76088 64.3506 2.95853C63.7626 3.15794 63.2978 3.41294 62.957 3.72618V11.8368H64.2712V14.3418H58.3731V11.8368H59.7194V6.10588C59.7194 4.85294 59.5106 3.96618 59.094 3.44382C58.6773 2.92235 57.9565 2.66118 56.9305 2.66118C56.3747 2.66118 55.8028 2.76088 55.2158 2.95853C54.6269 3.15794 54.1523 3.41294 53.7892 3.72618V11.8368H55.1355V14.3418H47.8912V11.8368H50.5516V3.63176L47.5066 2.66118L48.3399 0.156176L52.7953 1.59618C53.4368 1.09588 54.1577 0.704118 54.9588 0.422647C55.7609 0.140294 56.5558 0 57.3471 0C58.3089 0 59.1689 0.145588 59.9272 0.437647C60.6856 0.730588 61.3003 1.15853 61.7704 1.72235C62.3682 1.22029 63.0846 0.809118 63.9179 0.485294C64.7511 0.161471 65.5951 0 66.4507 0C68.4375 0 69.8748 0.453529 70.7616 1.36147C71.6484 2.27029 72.0918 3.74735 72.0918 5.79265V11.8368H74.8165V14.3418H67.5721V11.8368ZM38.7564 14.8747C37.2602 14.8747 35.9621 14.5818 34.8612 13.9976C33.7603 13.4135 32.9163 12.5621 32.3293 11.445C31.7413 10.3288 31.4478 9.00794 31.4478 7.48412C31.4478 5.91794 31.7413 4.57676 32.3293 3.45971C32.9163 2.34353 33.7603 1.48676 34.8612 0.892059C35.9621 0.297353 37.2602 0 38.7564 0C40.2944 0 41.6139 0.297353 42.7149 0.892059C43.8149 1.48676 44.6642 2.34353 45.2629 3.45971C45.8606 4.57676 46.1604 5.91794 46.1604 7.48412C46.1604 9.80118 45.4975 11.6126 44.1735 12.9176C42.8478 14.2226 41.0421 14.8747 38.7564 14.8747ZM41.9137 3.83559C41.2187 2.99029 40.166 2.56765 38.7564 2.56765C37.4101 2.56765 36.3886 2.99029 35.6945 3.83559C35.0004 4.68088 34.6533 5.89765 34.6533 7.48412C34.6533 9.04941 35.0004 10.2503 35.6945 11.085C36.3886 11.9206 37.4101 12.3379 38.7564 12.3379C40.166 12.3379 41.2187 11.9206 41.9137 11.085C42.6078 10.2503 42.9549 9.04941 42.9549 7.48412C42.9549 5.89765 42.6078 4.68088 41.9137 3.83559ZM26.996 2.81824C26.2903 2.85971 25.6176 2.97441 24.9761 3.16235C24.3355 3.35029 23.7788 3.60088 23.3096 3.91412L23.2774 11.8368H26.4187V14.3418H17.3794V11.8368H20.0719V3.69441L16.9949 2.69294L17.8603 0.156176L22.4121 1.65882C23.2453 1.11706 24.0947 0.714706 24.9601 0.453529C25.8254 0.193235 26.6855 0.0617647 27.5402 0.0617647C28.3306 0.0617647 28.9614 0.156176 29.4315 0.344118L29.9767 3.97676L27.3162 4.54059L26.996 2.81824ZM10.45 13.5909C8.99669 14.4459 7.47913 14.8747 5.89823 14.8747C3.97474 14.8747 2.51695 14.5085 1.52309 13.7779C0.529229 13.0482 0.0215915 11.9832 0.000179763 10.5838C-0.021232 7.72412 1.87014 6.29382 5.6743 6.29382L9.45615 6.32559C9.45615 5.01 9.19386 4.03412 8.67105 3.39706C8.14736 2.76088 7.4149 2.44235 6.47545 2.44235C5.98298 2.44235 5.51371 2.47324 5.06495 2.53588C4.6162 2.59853 4.18796 2.69294 3.78292 2.81824L3.46175 4.44618L0.801337 4.03941L1.37856 0.907941C2.21184 0.615 3.05582 0.390882 3.9105 0.234706C4.76519 0.0776471 5.61988 0 6.47545 0C8.50511 0 10.0494 0.526765 11.1066 1.58118C12.1647 2.63559 12.6938 4.18588 12.6938 6.23118V11.5235L15.5148 12.4315L14.6806 15L10.45 13.5909ZM9.45615 8.51735H5.76976C4.97931 8.51735 4.36996 8.68941 3.94262 9.03441C3.51528 9.37853 3.30205 9.87529 3.30205 10.5221C3.30205 11.8165 4.21027 12.4632 6.0267 12.4632C7.30873 12.4632 8.45158 12.1297 9.45615 11.4609V8.51735Z" fill="#141414"/>
</svg>
