<svg width="20" height="20" viewBox="0 0 20 20" fill="none" xmlns="http://www.w3.org/2000/svg" stroke="currentColor">
<path d="M14.1663 17.5V15.8333C14.1663 14.9493 13.8152 14.1014 13.19 13.4763C12.5649 12.8512 11.7171 12.5 10.833 12.5L4.16634 12.5C3.28229 12.5 2.43444 12.8512 1.80932 13.4763C1.1842 14.1014 0.833008 14.9493 0.833008 15.8333L0.833008 17.5" stroke-width="1.5" stroke-linecap="round" stroke-linejoin="round"/>
<path d="M7.49935 9.16667C9.3403 9.16667 10.8327 7.67428 10.8327 5.83333C10.8327 3.99238 9.3403 2.5 7.49935 2.5C5.6584 2.5 4.16602 3.99238 4.16602 5.83333C4.16602 7.67428 5.6584 9.16667 7.49935 9.16667Z" stroke-width="1.5" stroke-linecap="round" stroke-linejoin="round"/>
<path d="M19.166 17.5001V15.8334C19.1655 15.0948 18.9196 14.3774 18.4672 13.7937C18.0147 13.2099 17.3811 12.793 16.666 12.6084" stroke-width="1.5" stroke-linecap="round" stroke-linejoin="round"/>
<path d="M13.333 2.6084C14.05 2.79198 14.6855 3.20898 15.1394 3.79366C15.5932 4.37833 15.8395 5.09742 15.8395 5.83757C15.8395 6.57771 15.5932 7.2968 15.1394 7.88147C14.6855 8.46615 14.05 8.88315 13.333 9.06673" stroke-width="1.5" stroke-linecap="round" stroke-linejoin="round"/>
</svg>
