<svg width="20" height="20" viewBox="0 0 20 20" fill="none" xmlns="http://www.w3.org/2000/svg" stroke="currentColor">
<path d="M9.99962 0.989746C8.27179 0.989746 6.8711 2.39398 6.8711 4.12618C6.8711 4.28622 6.88306 4.44346 6.90612 4.59706C6.36844 4.15996 5.68328 3.89808 4.93711 3.89808C3.20928 3.89808 1.80859 5.30231 1.80859 7.03452C1.80859 8.40803 2.68925 9.57534 3.91537 9.99987C2.68925 10.4244 1.80859 11.5917 1.80859 12.9652C1.80859 14.6974 3.20928 16.1017 4.93711 16.1017C5.68328 16.1017 6.36844 15.8398 6.90612 15.4027C6.88306 15.5563 6.8711 15.7135 6.8711 15.8736C6.8711 17.6058 8.27179 19.01 9.99962 19.01C11.7275 19.01 13.1281 17.6058 13.1281 15.8736C13.1281 15.7135 13.1162 15.5563 13.0931 15.4027C13.6308 15.8398 14.316 16.1017 15.0621 16.1017C16.79 16.1017 18.1906 14.6974 18.1906 12.9652C18.1906 11.5917 17.31 10.4244 16.0839 9.99987C17.31 9.57534 18.1906 8.40803 18.1906 7.03452C18.1906 5.30231 16.79 3.89808 15.0621 3.89808C14.316 3.89808 13.6308 4.15996 13.0931 4.59706C13.1162 4.44346 13.1281 4.28622 13.1281 4.12618C13.1281 2.39398 11.7275 0.989746 9.99962 0.989746Z" stroke-width="1.5" stroke-linecap="round" stroke-linejoin="round" class="change-color"/>
<ellipse cx="9.9993" cy="9.99979" rx="2.45731" ry="2.45731" stroke-width="1.5" stroke-linecap="round" stroke-linejoin="round"/>
</svg>
