<svg width="20" height="20" viewBox="0 0 20 20" fill="none" xmlns="http://www.w3.org/2000/svg" stroke="currentColor">
<path d="M7.99199 3.82515C8.18558 3.63041 8.42428 3.48652 8.68689 3.40627C8.94949 3.32601 9.22785 3.31189 9.49722 3.36514C9.7666 3.41839 10.0186 3.53738 10.231 3.71152C10.4433 3.88566 10.6093 4.10956 10.7142 4.36331C10.8191 4.61706 10.8597 4.89281 10.8324 5.16603C10.8051 5.43926 10.7106 5.7015 10.5575 5.92945C10.4044 6.15739 10.1974 6.34398 9.95479 6.47262C9.7122 6.60126 9.44158 6.66797 9.16699 6.66681L1.66699 6.66681M10.492 16.1751C10.6856 16.3699 10.9243 16.5138 11.1869 16.594C11.4495 16.6743 11.7278 16.6884 11.9972 16.6352C12.2666 16.5819 12.5186 16.4629 12.731 16.2888C12.9433 16.1146 13.1093 15.8907 13.2142 15.637C13.3191 15.3832 13.3597 15.1075 13.3324 14.8343C13.3051 14.561 13.2106 14.2988 13.0575 14.0708C12.9044 13.8429 12.6974 13.6563 12.4548 13.5277C12.2122 13.399 11.9416 13.3323 11.667 13.3335L1.66699 13.3335M14.7753 6.44181C15.0177 6.20005 15.3159 6.02174 15.6436 5.92266C15.9713 5.82357 16.3183 5.80676 16.6541 5.87372C16.9898 5.94068 17.3038 6.08933 17.5684 6.30654C17.833 6.52375 18.04 6.80281 18.1711 7.11906C18.3022 7.4353 18.3534 7.77898 18.32 8.11969C18.2867 8.4604 18.1699 8.78764 17.98 9.07248C17.7901 9.35732 17.5329 9.59097 17.2313 9.75277C16.9296 9.91457 16.5927 9.99954 16.2503 10.0001L1.66699 10.0001" stroke-width="1.5" stroke-linecap="round" stroke-linejoin="round"/>
</svg>
